<?xml version="1.0" encoding="utf-8"?>
<!-- Generator: Adobe Illustrator 24.1.1, SVG Export Plug-In . SVG Version: 6.00 Build 0)  -->
<svg version="1.1" xmlns="http://www.w3.org/2000/svg" xmlns:xlink="http://www.w3.org/1999/xlink" x="0px" y="0px"
	 viewBox="0 0 1237.68 259.2" style="enable-background:new 0 0 1237.68 259.2;" xml:space="preserve">
<style type="text/css">
	.st0{fill:#212529;}
	.st1{font-family:'Noto Sans CJK KR Black';}
	.st2{font-size:259.2px;}
	.st3{enable-background:new    ;}
	.st4{fill:#2ECC71;}
	.st5{fill:#F1C40F;}
	.st6{fill:#E74C3C;}
</style>
<g id="똥_xA0_이미지_1_">
</g>
<g id="ShitVM">
	<text transform="matrix(1 0 0 1 331.1999 235.4398)" class="st0 st1 st2">ShitVM</text>
	<g id="_x31_층_똥_1_" class="st3">
		<g id="_x31_층_똥">
			<g>
				<path class="st4" d="M244.8,187.2H43.2C19.34,187.2,0,206.54,0,230.4v28.8h244.8c7.95,0,14.4-6.45,14.4-14.4v-43.2
					C259.2,193.65,252.75,187.2,244.8,187.2z"/>
			</g>
		</g>
	</g>
	<g id="_x32_층_똥_1_" class="st3">
		<g id="_x32_층_똥">
			<g>
				<path class="st5" d="M244.8,93.6H115.2c-23.86,0-43.2,19.34-43.2,43.2v24.96h172.8c7.95,0,14.4-6.45,14.4-14.4V108
					C259.2,100.05,252.75,93.6,244.8,93.6z"/>
			</g>
		</g>
	</g>
	<g id="_x33_층_똥_1_" class="st3">
		<g id="_x33_층_똥">
			<g>
				<path class="st6" d="M244.8,0h-57.6C163.34,0,144,19.34,144,43.2v24.96h100.8c7.95,0,14.4-6.45,14.4-14.4V14.4
					C259.2,6.45,252.75,0,244.8,0z"/>
			</g>
		</g>
	</g>
</g>
</svg>
