<?xml version="1.0" encoding="utf-8"?>
<!-- Generator: Adobe Illustrator 24.1.1, SVG Export Plug-In . SVG Version: 6.00 Build 0)  -->
<svg version="1.1" xmlns="http://www.w3.org/2000/svg" xmlns:xlink="http://www.w3.org/1999/xlink" x="0px" y="0px"
	 viewBox="0 0 1003.68 259.2" style="enable-background:new 0 0 1003.68 259.2;" xml:space="preserve">
<style type="text/css">
	.st0{enable-background:new    ;}
	.st1{fill:#2ECC71;}
	.st2{fill:#F1C40F;}
	.st3{fill:#E74C3C;}
	.st4{fill:#212529;}
</style>
<g id="똥_xA0_이미지_1_">
	<g id="_x31_층_똥_1_" class="st0">
		<g id="_x31_층_똥">
			<g>
				<path class="st1" d="M244.8,187.2H43.2C19.34,187.2,0,206.54,0,230.4v28.8h244.8c7.95,0,14.4-6.45,14.4-14.4v-43.2
					C259.2,193.65,252.75,187.2,244.8,187.2z"/>
			</g>
		</g>
	</g>
	<g id="_x32_층_똥_1_" class="st0">
		<g id="_x32_층_똥">
			<g>
				<path class="st2" d="M244.8,93.6H115.2c-23.86,0-43.2,19.34-43.2,43.2v24.96h172.8c7.95,0,14.4-6.45,14.4-14.4V108
					C259.2,100.05,252.75,93.6,244.8,93.6z"/>
			</g>
		</g>
	</g>
	<g id="_x33_층_똥_1_" class="st0">
		<g id="_x33_층_똥">
			<g>
				<path class="st3" d="M244.8,0h-57.6C163.34,0,144,19.34,144,43.2v24.96h100.8c7.95,0,14.4-6.45,14.4-14.4V14.4
					C259.2,6.45,252.75,0,244.8,0z"/>
			</g>
		</g>
	</g>
</g>
<g id="_x3C_문자_x3E_">
	<g>
	</g>
</g>
<g id="ShitVM">
	<g>
		<path class="st4" d="M324.46,191.5l19.83-24.15c10.41,8.84,23.96,14.92,35.54,14.92c12.96,0,19.05-4.91,19.05-12.76
			c0-8.44-8.05-11.19-20.62-16.5l-18.66-7.86c-15.32-6.09-29.65-18.85-29.65-40.06c0-24.55,21.99-44.19,53.02-44.19
			c16.89,0,34.76,6.48,47.52,19.25l-17.48,21.99c-9.62-7.27-18.66-11.19-30.05-11.19c-10.8,0-17.48,4.32-17.48,12.18
			c0,8.05,9.23,11.19,22.19,16.3l18.26,7.27c18.07,7.27,28.87,19.44,28.87,40.06c0,24.35-20.42,45.76-55.77,45.76
			C360,212.51,339.58,205.44,324.46,191.5z"/>
		<path class="st4" d="M456.42,52.85h34.76v37.71l-1.57,19.83c8.05-7.46,19.05-15.12,34.17-15.12c24.35,0,34.76,17.48,34.76,45.36
			v69.13h-34.96v-64.81c0-15.32-4.12-19.83-12.96-19.83c-7.86,0-12.57,3.54-19.44,10.02v74.63h-34.76V52.85z"/>
		<path class="st4" d="M583.09,64.63c0-10.6,8.25-18.07,20.03-18.07c11.59,0,19.83,7.46,19.83,18.07c0,10.41-8.25,17.87-19.83,17.87
			C591.34,82.51,583.09,75.04,583.09,64.63z M585.64,98.02h34.76v111.74h-34.76V98.02z"/>
		<path class="st4" d="M653.2,168.32v-43.01h-15.12V99.39l17.08-1.38l3.93-29.46h29.06v29.46h26.31v27.3h-26.31v42.61
			c0,12.37,5.89,17.28,14.14,17.28c3.54,0,7.46-1.18,10.21-1.96l5.5,25.14c-5.89,1.77-13.94,4.12-25.33,4.12
			C664.59,212.51,653.2,194.84,653.2,168.32z"/>
		<path class="st4" d="M720.16,63.65h37.12l16.69,66.57c4.32,15.71,7.07,30.83,11.39,46.74h0.98c4.12-15.91,7.27-31.03,11.39-46.74
			l16.5-66.57h35.74l-43.99,146.11h-42.03L720.16,63.65z"/>
		<path class="st4" d="M865.09,63.65h37.9l23.17,63.04c2.95,8.44,5.3,17.67,8.05,26.71h0.98c2.95-9.03,5.3-18.26,8.05-26.71
			l22.39-63.04h38.1v146.11h-32.01v-50.08c0-14.53,2.75-36.33,4.52-50.67h-0.79l-12.18,34.96l-19.64,53.42h-19.25l-19.83-53.42
			l-11.78-34.96h-0.79c1.77,14.34,4.52,36.13,4.52,50.67v50.08h-31.42V63.65z"/>
	</g>
</g>
</svg>
